<?xml version="1.0" encoding="UTF-8"?>
<!--Generator: Apple Native CoreSVG 326-->
<!DOCTYPE svg
PUBLIC "-//W3C//DTD SVG 1.1//EN"
       "http://www.w3.org/Graphics/SVG/1.1/DTD/svg11.dtd">
<svg version="1.1" xmlns="http://www.w3.org/2000/svg" xmlns:xlink="http://www.w3.org/1999/xlink" viewBox="0 0 19.2073 22.652">
 <g>
  <rect height="22.652" opacity="0" width="19.2073" x="0" y="0"/>
  <path d="M10.9005 22.6018C14.3224 22.6018 16.4544 21.383 16.4544 19.3395L16.4544 14.5496C17.9664 13.2662 18.846 11.1753 18.846 8.86719C18.846 3.54775 15.3794 0 10.2102 0C5.06953 0 1.62617 3.46895 1.62617 8.66817C1.62617 8.98301 1.63291 9.24297 1.66523 9.50596L0.464746 11.6756C0.141113 12.2282 0 12.7529 0 13.2591C0 14.2195 0.60918 15.0224 1.64199 15.2353L1.64199 17.1224C1.64199 18.7106 2.73154 19.532 4.22041 19.3714L6.25108 19.1596L5.39512 18.2036L5.39512 19.3395C5.39512 21.3732 7.50625 22.6018 10.9005 22.6018ZM10.9005 21.3928C8.2335 21.3928 6.56534 20.5045 6.56534 19.1326L6.56534 18.089C6.56534 17.9462 6.48487 17.8943 6.36162 17.9011L4.06983 18.1631C3.29541 18.2466 2.85098 17.8651 2.85098 17.0112L2.85098 14.3396C2.85098 14.2486 2.79541 14.1931 2.67754 14.1931L2.37061 14.1931C1.66016 14.1931 1.23457 13.8193 1.23457 13.2365C1.23457 12.9517 1.32852 12.6028 1.51035 12.2813L2.91397 9.74883C2.8584 9.37403 2.83516 9.0083 2.83516 8.6419C2.83516 4.18545 5.7793 1.20899 10.2102 1.20899C14.6666 1.20899 17.637 4.26055 17.637 8.86719C17.637 11.0396 16.7342 12.9506 15.2326 13.9537L15.2424 19.1326C15.2424 20.5045 13.5712 21.3928 10.9005 21.3928Z" fill="white" fill-opacity="0.85"/>
  <path d="M4.27979 7.18614C4.27979 8.85811 5.44024 9.97647 7.16778 9.97647C8.86299 9.98926 10.016 8.9753 10.016 7.49121C10.016 6.87764 9.78233 6.31563 9.39707 5.9836C9.26065 5.87041 9.15489 5.81416 9.01914 5.81416C8.80391 5.81416 8.64258 5.98154 8.64258 6.17656C8.64258 6.38643 8.75713 6.46895 8.89659 6.60537C9.11846 6.82354 9.24033 7.13194 9.24033 7.47774C9.24033 8.51621 8.42647 9.19707 7.17452 9.19707C5.89698 9.19707 5.05918 8.40274 5.05918 7.17637C5.05918 6.45205 5.45215 5.74395 6.05762 5.36514L5.72276 4.64776C4.86201 5.14043 4.27979 6.15098 4.27979 7.18614ZM5.46485 4.77442C5.46485 5.85 6.23633 6.58008 7.35703 6.58008C7.56553 6.58008 7.75616 6.40157 7.75616 6.19004C7.75616 5.97549 7.56553 5.79766 7.35703 5.79766C6.68633 5.79766 6.24424 5.39092 6.24424 4.77442C6.24424 4.10371 6.77725 3.62325 7.52608 3.62325C7.88369 3.62325 8.26084 3.74112 8.58545 3.9792L9.0378 3.3295C8.60069 3.021 8.08409 2.84082 7.52608 2.84082C6.34746 2.84082 5.46485 3.66416 5.46485 4.77442ZM7.91328 4.6293C7.90957 4.86104 8.06485 5.04561 8.2959 5.04561C8.52393 5.04561 8.68526 4.87754 8.692 4.65557C8.73409 3.75723 9.38057 3.11983 10.2887 3.1168C10.8126 3.1168 11.2574 3.38584 11.4332 3.84073C11.4895 3.97139 11.6231 3.9835 11.8077 3.93399C11.9508 3.87442 12.1134 3.86231 12.2895 3.86231C13.1794 3.86836 13.8293 4.52735 13.8293 5.46475C13.8293 7.61983 10.6513 7.29785 10.6513 9.55401C10.6513 10.5289 11.4423 11.2048 12.603 11.2048C12.6781 11.2048 12.7593 11.2048 12.86 11.2048C12.9943 12.1584 13.5591 12.782 14.2908 12.782C15.3243 12.782 16.0144 11.5792 16.0144 9.78584C16.0144 9.2419 15.9814 8.8334 15.9483 8.43838L15.1562 8.6876C15.1855 9.08125 15.235 9.38975 15.235 9.78213C15.235 11.0895 14.8413 12.0026 14.2908 12.0026C13.842 12.0026 13.5376 11.4676 13.5376 10.6716C13.5376 10.5477 13.4467 10.477 13.3265 10.477C13.2019 10.477 12.9692 10.4897 12.8672 10.4897C11.9485 10.4897 11.4337 10.1477 11.4337 9.54727C11.4337 7.79434 14.6185 8.22539 14.6185 5.46475C14.6185 4.0878 13.6489 3.07617 12.3471 3.07617C12.2124 3.07617 12.0656 3.08594 11.9158 3.12364C11.5397 2.63809 10.9507 2.33741 10.2887 2.33741C8.94776 2.33741 7.96817 3.28164 7.91328 4.6293ZM13.5161 9.1544C13.5161 9.36289 13.6774 9.52725 13.8927 9.54746C15.464 9.61182 16.5463 8.66387 16.5463 7.18584C16.5463 5.86885 15.5681 4.8916 14.1534 4.80098L14.0651 5.60293C15.0776 5.55948 15.7639 6.20059 15.7639 7.18584C15.7639 8.18457 15.0312 8.81895 13.9062 8.76504C13.6946 8.75156 13.5161 8.94287 13.5161 9.1544ZM11.1039 9.80986C10.8426 9.9082 10.4577 9.96983 10.1355 9.96983C9.30303 9.96983 8.51875 9.62803 8.26827 9.13135L7.62393 9.65108C8.14688 10.3226 9.05479 10.7311 10.0913 10.7311C10.4786 10.7311 10.9474 10.665 11.337 10.5465ZM9.396 6.62393L9.65938 7.36729C10.8387 7.175 11.4772 6.44561 11.4741 5.26328C11.4741 5.0585 11.2926 4.87393 11.078 4.87393C10.8635 4.87393 10.6947 5.05176 10.6947 5.26631C10.6947 6.11113 10.3001 6.5209 9.396 6.62393Z" fill="white" fill-opacity="0.85"/>
 </g>
</svg>
