<?xml version="1.0" encoding="UTF-8"?>
<!--Generator: Apple Native CoreSVG 326-->
<!DOCTYPE svg
PUBLIC "-//W3C//DTD SVG 1.1//EN"
       "http://www.w3.org/Graphics/SVG/1.1/DTD/svg11.dtd">
<svg version="1.1" xmlns="http://www.w3.org/2000/svg" xmlns:xlink="http://www.w3.org/1999/xlink" viewBox="0 0 22.9066 20.1813">
 <g>
  <rect height="20.1813" opacity="0" width="22.9066" x="0" y="0"/>
  <path d="M8.48301 19.4132L14.0623 19.4132L14.0623 13.0501C14.0623 12.6433 13.7966 12.3775 13.3897 12.3775L9.16231 12.3775C8.75547 12.3775 8.48301 12.6433 8.48301 13.0501ZM0.640041 9.8878C0.849904 9.8878 1.01094 9.7837 1.16758 9.65703L10.8915 1.48955C11.011 1.38955 11.1471 1.33467 11.2727 1.33467C11.405 1.33467 11.5343 1.38955 11.6538 1.48955L21.3845 9.65703C21.5344 9.7837 21.6954 9.8878 21.9083 9.8878C22.3055 9.8878 22.5453 9.60381 22.5453 9.29424C22.5453 9.11504 22.4756 8.93819 22.2934 8.79268L12.3234 0.42334C11.9887 0.141113 11.6307 0 11.2727 0C10.9147 0 10.5566 0.141113 10.2249 0.42334L0.251954 8.79268C0.076465 8.93819 0 9.11504 0 9.29424C0 9.60381 0.239844 9.8878 0.640041 9.8878ZM17.7905 5.41367L19.8754 7.1752L19.8754 2.92832C19.8754 2.57129 19.6443 2.34629 19.2934 2.34629L18.3726 2.34629C18.0283 2.34629 17.7905 2.57129 17.7905 2.92832ZM4.69834 20.1647L17.8537 20.1647C19.1466 20.1647 19.8754 19.4434 19.8754 18.167L19.8754 7.38301L18.6694 6.53955L18.6694 17.8763C18.6694 18.6019 18.3095 18.9588 17.6004 18.9588L4.95166 18.9588C4.23584 18.9588 3.87891 18.6019 3.87891 17.8763L3.87891 6.55537L2.66992 7.38301L2.66992 18.167C2.66992 19.4531 3.40176 20.1647 4.69834 20.1647Z" fill="white" fill-opacity="0.85"/>
 </g>
</svg>
